<?xml version="1.0" ?><!DOCTYPE svg  PUBLIC '-//W3C//DTD SVG 1.1//EN'  'http://www.w3.org/Graphics/SVG/1.1/DTD/svg11.dtd'><svg height="100%" style="fill-rule:evenodd;clip-rule:evenodd;stroke-linejoin:round;stroke-miterlimit:1.41421;" version="1.1" viewBox="0 0 101 125" width="100%" xml:space="preserve" xmlns="http://www.w3.org/2000/svg" xmlns:serif="http://www.serif.com/" xmlns:xlink="http://www.w3.org/1999/xlink"><path d="M42.994,105.275l0,-26c0,-0.3 0.2,-0.5 0.5,-0.5l13.8,0c0.3,0 0.5,0.2 0.5,0.5l0,26l23.6,0c4.1,0 7.5,-3.4 7.5,-7.5l0,-42.2c0,-2.6 -1.1,-5.1 -2.9,-7l-30,-26.7c-3.1,-3 -8.2,-3 -11.3,0l-29.8,26.7l-0.1,0.1c-1.9,1.8 -2.9,4.4 -2.9,7l0,42.2c0,4.1 3.4,7.5 7.5,7.5l23.6,0l0,-0.1Zm-24.1,-7.5l0,-42.2c0,-0.7 0.3,-1.4 0.8,-1.9l29.8,-26.6l0.1,-0.1c0.5,-0.4 1.2,-0.4 1.6,0l29.9,26.7c0.5,0.5 0.8,1.2 0.8,1.9l0,42.2c0,0.3 -0.2,0.5 -0.5,0.5l-16.6,0l0,-19c0,-4.1 -3.4,-7.5 -7.5,-7.5l-13.8,0c-4.1,0 -7.5,3.4 -7.5,7.5l0,19l-16.6,0c-0.3,0 -0.5,-0.2 -0.5,-0.5Z" style="fill-rule:nonzero;"/><path d="M81.394,98.275c0.34,-0.044 0.5,-0.232 0.5,-0.5l0,-42.2c0,-0.7 -0.3,-1.4 -0.8,-1.9l-29.9,-26.7c-0.4,-0.4 -1.1,-0.4 -1.6,0l-0.1,0.1l-29.8,26.6c-0.5,0.5 -0.8,1.2 -0.8,1.9l0,42.2c0,0.3 0.2,0.5 0.5,0.5l16.6,0l0,-19c0,-4.068 3.347,-7.447 7.5,-7.5l13.8,0c4.154,0.053 7.5,3.432 7.5,7.5l0,19l16.6,0Z" style="fill:#1cfff4;"/><path d="M38.893,91.46l-19.999,2.54l0,4.275l20.279,0" style="fill:#020000;fill-opacity:0.200867;"/><path d="M61.363,98.275l20.531,0l0,-12.275l-20.619,2.618" style="fill:#020000;fill-opacity:0.200867;"/></svg>