<?xml version="1.0" ?><!DOCTYPE svg  PUBLIC '-//W3C//DTD SVG 1.1//EN'  'http://www.w3.org/Graphics/SVG/1.1/DTD/svg11.dtd'><svg enable-background="new 0 0 153 153" height="153px" id="Layer_1" version="1.1" viewBox="0 0 153 153" width="153px" xml:space="preserve" xmlns="http://www.w3.org/2000/svg" xmlns:xlink="http://www.w3.org/1999/xlink"><g><path d="M152.5,122.1c0,16.789-13.611,30.4-30.4,30.4H30.9c-16.789,0-30.4-13.611-30.4-30.4V30.898   C0.5,14.109,14.111,0.5,30.9,0.5H122.1c16.789,0,30.4,13.609,30.4,30.398V122.1z" fill="#60C2A5"/><g><path d="M75.085,53.485c-1.582-3.105-4.882-3.62-7.334-1.145L31.259,89.177c-2.452,2.478-1.642,4.941,1.802,5.479    l62.169,9.704c3.443,0.537,4.967-1.563,3.386-4.67L75.085,53.485z" fill="#FFFFFF"/><g><path d="M87.138,77.077L74.391,89.943c-2.452,2.476-1.642,4.941,1.801,5.478l21.992,3.433L87.138,77.077z" fill="#FFFFFF"/><path d="M116.635,96.536l-13.686-26.873c-1.58-3.104-4.881-3.62-7.334-1.145l-6.782,6.846l12.134,23.924     l12.283,1.917C116.693,101.742,118.216,99.642,116.635,96.536z" fill="#FFFFFF"/></g></g><path d="M134.51,46.756L30.312,30.492c-2.927-0.456-5.67,1.546-6.127,4.474l-10.168,65.148   c-0.458,2.927,1.545,5.671,4.473,6.127l104.198,16.263c2.928,0.457,5.672-1.545,6.129-4.472l10.168-65.149   C139.441,49.956,137.438,47.212,134.51,46.756z M123.181,113.557c-0.409,2.611-2.856,4.399-5.468,3.992l-92.974-14.511   c-2.612-0.407-4.399-2.856-3.991-5.469L29.82,39.44c0.408-2.612,2.856-4.399,5.468-3.992l92.974,14.511   c2.611,0.407,4.398,2.856,3.99,5.469L123.181,113.557z" fill="#FFFFFF"/></g></svg>